name C:\Users\u0101727\Documents\MyRepositories\upper-imu-dc\OpenSim\subject0\MA\ResultsMA\grid_3nodes_9dim\angles_1.mot
datacolumns 10
datarows 18
range 124.21000000 124.38000000
endheader 
time	clav_prot	clav_elev	scapula_abduction	scapula_elevation	scapula_upward_rot	scapula_winging	plane_elv	shoulder_elv	axial_rot	
        124.21000000	        -50.00000000	        -10.00000000	        -40.00000000	          0.00000000	          0.00000000	        -20.00000000	         90.00000000	        100.00000000	          0.00000000	
        124.22000000	        -32.50000000	        -10.00000000	        -40.00000000	          0.00000000	          0.00000000	        -20.00000000	         90.00000000	        100.00000000	          0.00000000	
        124.23000000	        -15.00000000	        -10.00000000	        -40.00000000	          0.00000000	          0.00000000	        -20.00000000	         90.00000000	        100.00000000	          0.00000000	
        124.24000000	        -50.00000000	          5.00000000	        -40.00000000	          0.00000000	          0.00000000	        -20.00000000	         90.00000000	        100.00000000	          0.00000000	
        124.25000000	        -32.50000000	          5.00000000	        -40.00000000	          0.00000000	          0.00000000	        -20.00000000	         90.00000000	        100.00000000	          0.00000000	
        124.26000000	        -15.00000000	          5.00000000	        -40.00000000	          0.00000000	          0.00000000	        -20.00000000	         90.00000000	        100.00000000	          0.00000000	
        124.27000000	        -50.00000000	         20.00000000	        -40.00000000	          0.00000000	          0.00000000	        -20.00000000	         90.00000000	        100.00000000	          0.00000000	
        124.28000000	        -32.50000000	         20.00000000	        -40.00000000	          0.00000000	          0.00000000	        -20.00000000	         90.00000000	        100.00000000	          0.00000000	
        124.29000000	        -15.00000000	         20.00000000	        -40.00000000	          0.00000000	          0.00000000	        -20.00000000	         90.00000000	        100.00000000	          0.00000000	
        124.30000000	        -50.00000000	        -10.00000000	        -12.50000000	          0.00000000	          0.00000000	        -20.00000000	         90.00000000	        100.00000000	          0.00000000	
        124.31000000	        -32.50000000	        -10.00000000	        -12.50000000	          0.00000000	          0.00000000	        -20.00000000	         90.00000000	        100.00000000	          0.00000000	
        124.32000000	        -15.00000000	        -10.00000000	        -12.50000000	          0.00000000	          0.00000000	        -20.00000000	         90.00000000	        100.00000000	          0.00000000	
        124.33000000	        -50.00000000	          5.00000000	        -12.50000000	          0.00000000	          0.00000000	        -20.00000000	         90.00000000	        100.00000000	          0.00000000	
        124.34000000	        -32.50000000	          5.00000000	        -12.50000000	          0.00000000	          0.00000000	        -20.00000000	         90.00000000	        100.00000000	          0.00000000	
        124.35000000	        -15.00000000	          5.00000000	        -12.50000000	          0.00000000	          0.00000000	        -20.00000000	         90.00000000	        100.00000000	          0.00000000	
        124.36000000	        -50.00000000	         20.00000000	        -12.50000000	          0.00000000	          0.00000000	        -20.00000000	         90.00000000	        100.00000000	          0.00000000	
        124.37000000	        -32.50000000	         20.00000000	        -12.50000000	          0.00000000	          0.00000000	        -20.00000000	         90.00000000	        100.00000000	          0.00000000	
        124.38000000	        -15.00000000	         20.00000000	        -12.50000000	          0.00000000	          0.00000000	        -20.00000000	         90.00000000	        100.00000000	          0.00000000	
